<!--
  Palette icon from Material Design Icons by Google
  https://github.com/google/material-design-icons
  Licensed under the Apache License 2.0
-->
<svg width="128" height="128" viewBox="0 0 128 128" fill="none" xmlns="http://www.w3.org/2000/svg">
  <rect width="128" height="128" rx="29" fill="#1A2735"/>
  <path d="M64 10.6667C34.6133 10.6667 10.6667 34.6133 10.6667 64C10.6667 93.3867 34.6133 117.333 64 117.333C71.36 117.333 77.3333 111.36 77.3333 104C77.3333 100.747 76.1067 97.6 73.92 95.0933C73.4933 94.56 73.2267 93.9733 73.2267 93.3333C73.2267 91.84 74.4 90.6667 75.8933 90.6667H85.3333C102.987 90.6667 117.333 76.32 117.333 58.6667C117.333 32.2133 93.3867 10.6667 64 10.6667ZM93.3333 69.3333C88.9067 69.3333 85.3333 65.76 85.3333 61.3333C85.3333 56.9067 88.9067 53.3333 93.3333 53.3333C97.76 53.3333 101.333 56.9067 101.333 61.3333C101.333 65.76 97.76 69.3333 93.3333 69.3333ZM77.3333 48C72.9067 48 69.3333 44.4267 69.3333 40C69.3333 35.5733 72.9067 32 77.3333 32C81.76 32 85.3333 35.5733 85.3333 40C85.3333 44.4267 81.76 48 77.3333 48ZM26.6667 61.3333C26.6667 56.9067 30.24 53.3333 34.6667 53.3333C39.0933 53.3333 42.6667 56.9067 42.6667 61.3333C42.6667 65.76 39.0933 69.3333 34.6667 69.3333C30.24 69.3333 26.6667 65.76 26.6667 61.3333ZM58.6667 40C58.6667 44.4267 55.0933 48 50.6667 48C46.24 48 42.6667 44.4267 42.6667 40C42.6667 35.5733 46.24 32 50.6667 32C55.0933 32 58.6667 35.5733 58.6667 40Z" fill="#EEEEEE"/>
</svg>
