<!--
  Palette icon from Material Design Icons by Google
  https://github.com/google/material-design-icons/blob/d3d4aca/src/image/palette/materialicons/24px.svg
  Licensed under the Apache License 2.0
-->
<svg width="128" height="128" viewBox="0 0 128 128" fill="none" xmlns="http://www.w3.org/2000/svg">
  <rect width="128" height="128" rx="29" fill="#1A2735"/>
  <path d="M64 16C37.4933 16 16 37.4933 16 64C16 90.5067 37.4933 112 64 112C68.4267 112 72 108.427 72 104C72 101.92 71.2 100.053 69.92 98.6133C68.6933 97.2267 67.8933 95.36 67.8933 93.3333C67.8933 88.9067 71.4667 85.3333 75.8933 85.3333H85.3333C100.053 85.3333 112 73.3867 112 58.6667C112 35.0933 90.5067 16 64 16ZM34.6667 64C30.24 64 26.6667 60.4267 26.6667 56C26.6667 51.5733 30.24 48 34.6667 48C39.0933 48 42.6667 51.5733 42.6667 56C42.6667 60.4267 39.0933 64 34.6667 64ZM50.6667 42.6667C46.24 42.6667 42.6667 39.0933 42.6667 34.6667C42.6667 30.24 46.24 26.6667 50.6667 26.6667C55.0933 26.6667 58.6667 30.24 58.6667 34.6667C58.6667 39.0933 55.0933 42.6667 50.6667 42.6667ZM77.3333 42.6667C72.9067 42.6667 69.3333 39.0933 69.3333 34.6667C69.3333 30.24 72.9067 26.6667 77.3333 26.6667C81.76 26.6667 85.3333 30.24 85.3333 34.6667C85.3333 39.0933 81.76 42.6667 77.3333 42.6667ZM93.3333 64C88.9067 64 85.3333 60.4267 85.3333 56C85.3333 51.5733 88.9067 48 93.3333 48C97.76 48 101.333 51.5733 101.333 56C101.333 60.4267 97.76 64 93.3333 64Z" fill="#EEEEEE"/>
</svg>
